<svg height="480pt" viewBox="0 -48 480 480" width="480pt" xmlns="http://www.w3.org/2000/svg"><path d="m40 8h400c17.601562 0 32 14.398438 32 32v192c0 17.601562-14.398438 32-32 32h-400c-17.601562 0-32-14.398438-32-32v-192c0-17.601562 14.398438-32 32-32zm0 0" fill="#e2c8ac"/><path d="m472 280c0 53.019531-42.980469 96-96 96s-96-42.980469-96-96 42.980469-96 96-96 96 42.980469 96 96zm0 0" fill="#e23333"/><path d="m321.859375 323.890625 96.761719-97.835937 11.375 11.25-96.757813 97.835937zm0 0" fill="#fff"/><path d="m322.253906 237.574219 11.316406-11.3125 96.164063 96.164062-11.3125 11.3125zm0 0" fill="#fff"/><g fill="#ceb195"><path d="m224 48h96v16h-96zm0 0"/><path d="m224 80h224v16h-224zm0 0"/><path d="m224 112h224v16h-224zm0 0"/><path d="m224 144h224v16h-224zm0 0"/><path d="m224 176h64v16h-64zm0 0"/><path d="m224 208h48v16h-48zm0 0"/></g><path d="m200 136c0 44.183594-35.816406 80-80 80s-80-35.816406-80-80 35.816406-80 80-80 80 35.816406 80 80zm0 0" fill="#239172"/><path d="m120 216c20.800781 0 41.601562-8 56-23.199219l-6.398438-32.800781c-.800781-4.800781-4-8.800781-8.800781-11.199219l-18.402343-9.601562c-3.199219-1.597657-5.597657-5.597657-4-9.597657l4.800781-14.402343c4-11.199219-2.398438-22.398438-12.800781-26.398438-2.398438-.800781-4.796876-.800781-7.199219-.800781h-6.398438c-11.199219 0-20.800781 9.601562-20.800781 20.800781 0 2.398438 0 4.800781.800781 6.398438l4.800781 14.402343c1.597657 4-.800781 8-4 9.597657l-18.402343 9.601562c-4.800781 2.398438-7.199219 6.398438-8.800781 11.199219l-6.398438 32.800781c14.398438 15.199219 35.199219 23.199219 56 23.199219zm0 0" fill="#e9e9e9"/><path d="m440 0h-400c-22.398438 0-40 17.601562-40 40v192c0 22.398438 17.601562 40 40 40h216v-16h-216c-13.601562 0-24-10.398438-24-24v-192c0-13.601562 10.398438-24 24-24h400c13.601562 0 24 10.398438 24 24v160h16v-160c0-22.398438-17.601562-40-40-40zm0 0"/><path d="m376 176c-57.601562 0-104 46.398438-104 104s46.398438 104 104 104 104-46.398438 104-104-46.398438-104-104-104zm0 192c-48.800781 0-88-39.199219-88-88s39.199219-88 88-88 88 39.199219 88 88-39.199219 88-88 88zm0 0"/><path d="m418.398438 226.398438-42.398438 42.402343-42.398438-42.402343-11.203124 11.203124 42.402343 42.398438-43.199219 44 11.199219 11.199219 43.199219-44 42.398438 42.402343 11.203124-11.203124-42.402343-42.398438 42.402343-42.398438zm0 0"/><path d="m224 48h96v16h-96zm0 0"/><path d="m224 80h224v16h-224zm0 0"/><path d="m224 112h224v16h-224zm0 0"/><path d="m224 144h224v16h-224zm0 0"/><path d="m224 176h64v16h-64zm0 0"/><path d="m224 208h48v16h-48zm0 0"/><path d="m32 136c0 48.800781 39.199219 88 88 88s88-39.199219 88-88-39.199219-88-88-88-88 39.199219-88 88zm40.800781 54.398438 5.597657-28.796876c.800781-2.402343 2.402343-4.800781 4-5.601562l18.402343-9.601562c7.199219-3.199219 10.398438-12 8-19.199219l-4.800781-14.398438c-2.398438-6.402343 1.601562-13.601562 8-16 1.601562-.800781 2.398438-.800781 4-.800781h6.398438c7.203124 0 12.800781 5.601562 12.800781 12.800781 0 1.597657 0 2.398438-.800781 4l-4.796876 14.398438c-2.402343 7.199219.796876 16 8 19.199219l18.398438 9.601562c2.398438.800781 4 3.199219 4 5.601562l5.601562 28.796876c-25.601562 23.203124-65.601562 23.203124-92.800781 0zm119.199219-54.398438c0 13.601562-4 27.199219-11.199219 38.398438l-3.199219-16.796876c-1.601562-7.203124-6.402343-13.601562-12.800781-16.800781l-18.402343-9.601562 4.800781-14.398438c4.800781-15.199219-3.199219-31.199219-18.398438-36-3.199219-.800781-5.601562-1.601562-8.800781-1.601562h-6.398438c-16 0-28.800781 12.800781-28.800781 28.800781 0 3.199219.800781 6.398438 1.597657 8.800781l4.800781 14.398438-18.398438 9.601562c-6.402343 3.199219-11.199219 9.597657-12.800781 16.800781l-3.199219 16.796876c-21.601562-33.597657-11.199219-78.398438 22.398438-99.199219 33.601562-20.800781 78.402343-11.199219 99.199219 22.402343 5.601562 11.199219 9.601562 24.796876 9.601562 38.398438zm0 0"/></svg>