<?xml version="1.0" encoding="iso-8859-1"?>
<!-- Generator: Adobe Illustrator 19.0.0, SVG Export Plug-In . SVG Version: 6.00 Build 0)  -->
<svg xmlns="http://www.w3.org/2000/svg" xmlns:xlink="http://www.w3.org/1999/xlink" version="1.1" id="Layer_1" x="0px" y="0px" viewBox="0 0 512 512" style="enable-background:new 0 0 512 512;" xml:space="preserve" width="512" height="512">
<g id="XMLID_1982_">
	<g id="XMLID_1983_">
		<path id="XMLID_2367_" style="fill:#BDDFF4;" d="M301.421,393.146l-6.392-41.927h-78.059l-6.392,41.927    c-2.509,16.459-10.041,31.742-21.565,43.758l-8.22,8.572c-6.942,7.239-1.812,19.268,8.218,19.268h133.977    c10.03,0,15.16-12.029,8.218-19.268l-8.22-8.572C311.462,424.888,303.931,409.606,301.421,393.146z"/>
		<path id="XMLID_2364_" style="fill:#ADC9E2;" d="M322.987,464.741h-25.05c10.032,0,15.167-12.024,8.221-19.266l-8.221-8.574    c-11.523-12.013-19.061-27.294-21.566-43.759l-6.388-41.925h25.05l6.388,41.925c2.505,16.465,10.043,31.746,21.566,43.759    l8.221,8.574C338.154,452.716,333.019,464.741,322.987,464.741z"/>
		<path id="XMLID_2361_" style="fill:#4E7693;" d="M487.42,365.553H24.58c-9.433,0-17.08-7.647-17.08-17.08V64.336    c0-9.433,7.647-17.08,17.08-17.08h462.84c9.433,0,17.08,7.647,17.08,17.08v284.138C504.5,357.906,496.853,365.553,487.42,365.553z    "/>
		<path id="XMLID_1989_" style="fill:#38627C;" d="M504.5,64.34v284.13c0,9.44-7.65,17.08-17.08,17.08h-27.5    c9.43,0,17.08-7.64,17.08-17.08V64.34c0-9.44-7.65-17.08-17.08-17.08h27.5C496.85,47.26,504.5,54.9,504.5,64.34z"/>
		<path id="XMLID_1992_" style="fill:#E3F4FF;" d="M504.5,321.59v26.88c0,9.44-7.65,17.08-17.08,17.08H24.58    c-9.43,0-17.08-7.64-17.08-17.08v-26.88H504.5z"/>
		<path id="XMLID_1995_" style="fill:#BDDFF4;" d="M504.5,321.59v26.88c0,9.44-7.65,17.08-17.08,17.08h-27.5    c9.43,0,17.08-7.64,17.08-17.08v-26.88H504.5z"/>
		<g id="XMLID_1996_">
			<g id="XMLID_1997_">
				<path id="XMLID_2351_" style="fill:#FC3E81;" d="M246.22,123.9l-74.349,115.486c-4.983,7.741,0.574,17.928,9.78,17.928h148.698      c9.206,0,14.764-10.188,9.78-17.928L265.78,123.9C261.2,116.786,250.8,116.786,246.22,123.9z"/>
			</g>
		</g>
	</g>
	<g id="XMLID_1998_">
		<path id="XMLID_1999_" d="M504.5,255.945c-4.143,0-7.5,3.358-7.5,7.5v50.64H15V64.336c0-5.282,4.298-9.58,9.58-9.58h338.743    c4.143,0,7.5-3.358,7.5-7.5s-3.357-7.5-7.5-7.5H24.58C11.026,39.756,0,50.782,0,64.336v284.138c0,13.553,11.026,24.58,24.58,24.58    h83.755c4.142,0,7.5-3.358,7.5-7.5s-3.358-7.5-7.5-7.5H24.58c-5.282,0-9.58-4.297-9.58-9.58v-19.388h482v19.388    c0,5.282-4.298,9.58-9.58,9.58H142.858c-4.142,0-7.5,3.358-7.5,7.5s3.358,7.5,7.5,7.5h63.197l-2.891,18.963    c-2.289,15.012-9.053,28.738-19.563,39.697l-8.22,8.572c-5.327,5.555-6.761,13.403-3.741,20.482    c3.02,7.08,9.676,11.477,17.373,11.477h133.977c7.696,0,14.353-4.397,17.372-11.477s1.586-14.928-3.741-20.482l-8.22-8.572    c-10.51-10.958-17.275-24.685-19.564-39.697l-2.891-18.963H487.42c13.554,0,24.58-11.026,24.58-24.58v-85.028    C512,259.303,508.643,255.945,504.5,255.945z M326.563,454.883c-0.304,0.71-1.258,2.361-3.575,2.361H189.012    c-2.317,0-3.272-1.652-3.575-2.362c-0.303-0.71-0.834-2.542,0.77-4.215l8.22-8.571c1.481-1.544,2.894-3.138,4.25-4.771h114.646    c1.356,1.632,2.769,3.226,4.25,4.77l8.22,8.572C327.397,452.34,326.866,454.172,326.563,454.883z M294.007,394.277    c1.512,9.915,4.654,19.359,9.263,28.048H208.73c4.608-8.69,7.751-18.134,9.263-28.048l3.236-21.224h69.543L294.007,394.277z"/>
		<path id="XMLID_2003_" d="M487.42,39.756h-89.574c-4.143,0-7.5,3.358-7.5,7.5s3.357,7.5,7.5,7.5h89.574    c5.282,0,9.58,4.298,9.58,9.58v164.587c0,4.142,3.357,7.5,7.5,7.5s7.5-3.358,7.5-7.5V64.336    C512,50.782,500.974,39.756,487.42,39.756z"/>
		<path id="XMLID_2004_" d="M181.651,264.815H330.35c7.005,0,13.44-3.82,16.795-9.97c3.355-6.149,3.083-13.629-0.709-19.519    l-74.35-115.486c-3.537-5.495-9.552-8.775-16.086-8.775c-6.535,0-12.549,3.281-16.086,8.776v0l-74.349,115.486    c-3.792,5.89-4.063,13.37-0.708,19.519C168.21,260.995,174.646,264.815,181.651,264.815z M178.177,243.446l74.349-115.486    c0,0,0,0,0,0c1.101-1.71,2.796-1.895,3.474-1.895c0.678,0,2.374,0.185,3.475,1.896l74.349,115.486    c1.199,1.861,0.507,3.568,0.153,4.215c-0.353,0.647-1.413,2.153-3.627,2.153H181.651c-2.213,0-3.274-1.506-3.627-2.153    C177.67,247.014,176.979,245.308,178.177,243.446z"/>
		<path id="XMLID_2007_" d="M256,210.988c4.143,0,7.5-3.358,7.5-7.5v-36.333c0-4.142-3.357-7.5-7.5-7.5c-4.142,0-7.5,3.358-7.5,7.5    v36.333C248.5,207.63,251.858,210.988,256,210.988z"/>
		<path id="XMLID_2008_" d="M255.946,233.976h0.108c4.142,0,7.5-3.358,7.5-7.5s-3.358-7.5-7.5-7.5h-0.108    c-4.142,0-7.5,3.358-7.5,7.5S251.804,233.976,255.946,233.976z"/>
		<path id="XMLID_2009_" d="M208.633,122.087c4.142,0,7.5-3.358,7.5-7.5s-3.358-7.5-7.5-7.5h-97.966c-4.142,0-7.5,3.358-7.5,7.5    s3.358,7.5,7.5,7.5H208.633z"/>
		<path id="XMLID_2010_" d="M69.633,122.087H82.65c4.142,0,7.5-3.358,7.5-7.5s-3.358-7.5-7.5-7.5H69.633c-4.142,0-7.5,3.358-7.5,7.5    S65.491,122.087,69.633,122.087z"/>
		<path id="XMLID_2011_" d="M186.133,150.27c0-4.142-3.358-7.5-7.5-7.5h-109c-4.142,0-7.5,3.358-7.5,7.5s3.358,7.5,7.5,7.5h109    C182.775,157.77,186.133,154.412,186.133,150.27z"/>
		<path id="XMLID_2012_" d="M162.133,185.951c0-4.142-3.358-7.5-7.5-7.5h-85c-4.142,0-7.5,3.358-7.5,7.5s3.358,7.5,7.5,7.5h85    C158.775,193.451,162.133,190.093,162.133,185.951z"/>
		<path id="XMLID_2013_" d="M144.133,221.633c0-4.142-3.358-7.5-7.5-7.5h-67c-4.142,0-7.5,3.358-7.5,7.5s3.358,7.5,7.5,7.5h67    C140.775,229.133,144.133,225.775,144.133,221.633z"/>
		<path id="XMLID_2014_" d="M130.633,249.815h-61c-4.142,0-7.5,3.358-7.5,7.5s3.358,7.5,7.5,7.5h61c4.142,0,7.5-3.358,7.5-7.5    S134.775,249.815,130.633,249.815z"/>
		<path id="XMLID_2015_" d="M442.367,107.087h-139c-4.143,0-7.5,3.358-7.5,7.5s3.357,7.5,7.5,7.5h139c4.143,0,7.5-3.358,7.5-7.5    S446.51,107.087,442.367,107.087z"/>
		<path id="XMLID_2016_" d="M442.367,142.77h-109c-4.143,0-7.5,3.358-7.5,7.5s3.357,7.5,7.5,7.5h109c4.143,0,7.5-3.358,7.5-7.5    S446.51,142.77,442.367,142.77z"/>
		<path id="XMLID_2017_" d="M442.367,178.451h-30.5c-4.143,0-7.5,3.358-7.5,7.5s3.357,7.5,7.5,7.5h30.5c4.143,0,7.5-3.358,7.5-7.5    S446.51,178.451,442.367,178.451z"/>
		<path id="XMLID_2018_" d="M390,185.951c0-4.142-3.357-7.5-7.5-7.5h-25.133c-4.143,0-7.5,3.358-7.5,7.5s3.357,7.5,7.5,7.5H382.5    C386.643,193.451,390,190.093,390,185.951z"/>
		<path id="XMLID_2019_" d="M442.367,214.133h-67c-4.143,0-7.5,3.358-7.5,7.5s3.357,7.5,7.5,7.5h67c4.143,0,7.5-3.358,7.5-7.5    S446.51,214.133,442.367,214.133z"/>
		<path id="XMLID_2020_" d="M442.367,249.815h-61c-4.143,0-7.5,3.358-7.5,7.5s3.357,7.5,7.5,7.5h61c4.143,0,7.5-3.358,7.5-7.5    S446.51,249.815,442.367,249.815z"/>
	</g>
</g>















</svg>
