<svg id="Layer_3" enable-background="new 0 0 64 64" height="512" viewBox="0 0 64 64" width="512" xmlns="http://www.w3.org/2000/svg"><path d="m39 17h-2v-7.983l.937-.06c.957-.061 1.921-.189 2.865-.381l.396 1.961c-.725.146-1.461.26-2.198.337z"/><path d="m37.294 21.196c-.142-.706-.232-1.427-.271-2.142l1.996-.109c.034.62.114 1.245.236 1.858z"/><path d="m53 18h-2v-6c0-1.654-1.346-3-3-3s-3 1.346-3 3v6h-2v-6c0-2.757 2.243-5 5-5s5 2.243 5 5z"/><path d="m52 17h-8c-1.654 0-3 1.346-3 3v8c0 1.654 1.346 3 3 3h8c1.654 0 3-1.346 3-3v-8c0-1.654-1.346-3-3-3zm-4 8c-1.105 0-2-.895-2-2s.895-2 2-2 2 .895 2 2-.895 2-2 2z" fill="#f0bc5e"/><path d="m48 26c-1.654 0-3-1.346-3-3s1.346-3 3-3 3 1.346 3 3-1.346 3-3 3zm0-4c-.552 0-1 .448-1 1s.448 1 1 1 1-.448 1-1-.448-1-1-1z"/><path d="m47 25h2v3h-2z"/><path d="m39.228 31h-30.228v14h38v-9.297c-3.022-.908-5.667-2.554-7.772-4.703z" fill="#f0bc5e"/><path d="m59.403 5c-3.902 0-7.73-1.343-10.778-3.781l-.625-.499-.625.499c-3.048 2.438-6.876 3.781-10.778 3.781h-3.597v10h-27c-2.757 0-5 2.243-5 5v28c0 2.757 2.243 5 5 5h12.382l-2 4h-1.382c-2.757 0-5 2.243-5 5v1h36v-1c0-2.757-2.243-5-5-5h-1.382l-2-4h12.382c2.757 0 5-2.243 5-5v-14.174c4.898-3.555 8-9.317 8-15.595v-13.231zm-15.574 56h-31.658c.413-1.164 1.525-2 2.829-2h26c1.304 0 2.416.836 2.829 2zm-6.447-4h-18.764l2-4h14.764zm15.618-9c0 1.654-1.346 3-3 3h-44c-1.654 0-3-1.346-3-3v-28c0-1.654 1.346-3 3-3h27v1.231c0 .258.022.512.032.769h-26.032c-1.103 0-2 .897-2 2v26c0 1.103.897 2 2 2h42c1.103 0 2-.897 2-2v-10.95c.689-.281 1.356-.6 2-.955zm-19.786-27c1.086 7.385 6.429 13.653 13.75 15.743l1.036.297 1-.286v10.246h-42v-26zm27.786-2.769c0 7.663-5.146 14.485-12.514 16.589l-.486.14-.486-.14c-7.368-2.103-12.514-8.925-12.514-16.589v-11.231h1.597c4.092 0 8.111-1.323 11.403-3.74 3.292 2.417 7.311 3.74 11.403 3.74h1.597z"/><path d="m37 35h2v2h-2z"/><path d="m37 39h2v2h-2z"/><path d="m35 37h2v2h-2z"/><path d="m39 37h2v2h-2z"/><path d="m27 35h2v2h-2z"/><path d="m27 39h2v2h-2z"/><path d="m25 37h2v2h-2z"/><path d="m29 37h2v2h-2z"/><path d="m17 35h2v2h-2z"/><path d="m17 39h2v2h-2z"/><path d="m15 37h2v2h-2z"/><path d="m19 37h2v2h-2z"/><path d="m17 29h-8v-6h8zm-6-2h4v-2h-4z"/><path d="m31 29h-12v-6h12zm-10-2h8v-2h-8z"/></svg>