<?xml version="1.0" encoding="UTF-8" standalone="no"?>
<svg
   xmlns:dc="http://purl.org/dc/elements/1.1/"
   xmlns:cc="http://creativecommons.org/ns#"
   xmlns:rdf="http://www.w3.org/1999/02/22-rdf-syntax-ns#"
   xmlns:svg="http://www.w3.org/2000/svg"
   xmlns="http://www.w3.org/2000/svg"
   xmlns:sodipodi="http://sodipodi.sourceforge.net/DTD/sodipodi-0.dtd"
   xmlns:inkscape="http://www.inkscape.org/namespaces/inkscape"
   version="1.1"
   id="Capa_1"
   x="0px"
   y="0px"
   viewBox="0 0 512 512"
   style="enable-background:new 0 0 512 512;"
   xml:space="preserve"
   width="512px"
   height="512px"
   class=""
   sodipodi:docname="pifrans_logo_02.svg"
   inkscape:version="0.92.4 (5da689c313, 2019-01-14)"><metadata
   id="metadata75"><rdf:RDF><cc:Work
       rdf:about=""><dc:format>image/svg+xml</dc:format><dc:type
         rdf:resource="http://purl.org/dc/dcmitype/StillImage" /><dc:title></dc:title></cc:Work></rdf:RDF></metadata><defs
   id="defs73" /><sodipodi:namedview
   pagecolor="#ffffff"
   bordercolor="#666666"
   borderopacity="1"
   objecttolerance="10"
   gridtolerance="10"
   guidetolerance="10"
   inkscape:pageopacity="0"
   inkscape:pageshadow="2"
   inkscape:window-width="1600"
   inkscape:window-height="837"
   id="namedview71"
   showgrid="false"
   inkscape:zoom="0.921875"
   inkscape:cx="316.71289"
   inkscape:cy="197.64404"
   inkscape:window-x="-8"
   inkscape:window-y="-8"
   inkscape:window-maximized="1"
   inkscape:current-layer="g68" /><g
   transform="matrix(0.9999, -2.44905e-16, 2.44905e-16, 0.9999, 0.0256, 0.0256)"
   id="g68"><g
     id="g10">
	<path
   style="fill:#837A88"
   d="M29.656,397.656l-11.313-11.313l64.969-64.969c5.953-5.957,14.195-9.375,22.625-9.375H152v16   h-46.063c-4.211,0-8.336,1.707-11.313,4.688L29.656,397.656z"
   data-original="#DBD9DC"
   class=""
   data-old_color="#DBD9DC"
   id="path2" />
	<path
   style="fill:#837A88"
   d="M406.063,200H360v-16h46.063c4.211,0,8.336-1.707,11.313-4.688l64.969-64.969l11.313,11.313   l-64.969,64.969C422.734,196.582,414.492,200,406.063,200z"
   data-original="#DBD9DC"
   class=""
   data-old_color="#DBD9DC"
   id="path4" />
	<path
   style="fill:#837A88"
   d="M200,152h-16v-46.059c0-4.27-1.664-8.289-4.688-11.316l-64.969-64.969l11.313-11.313l64.969,64.969   c6.047,6.051,9.375,14.086,9.375,22.629V152z"
   data-original="#DBD9DC"
   class=""
   data-old_color="#DBD9DC"
   id="path6" />
	<path
   style="fill:#837A88"
   d="M386.344,493.656l-64.969-64.969c-6.047-6.051-9.375-14.086-9.375-22.629V360h16v46.059   c0,4.27,1.664,8.289,4.688,11.316l64.969,64.969L386.344,493.656z"
   data-original="#DBD9DC"
   class=""
   data-old_color="#DBD9DC"
   id="path8" />
</g><g
     id="g20">
	<rect
   x="312"
   y="40"
   style="fill:#786D7C"
   width="16"
   height="112"
   data-original="#C9C6CA"
   class=""
   data-old_color="#C9C6CA"
   id="rect12" />
	<rect
   x="184"
   y="360"
   style="fill:#786D7C"
   width="16"
   height="112"
   data-original="#C9C6CA"
   class=""
   data-old_color="#C9C6CA"
   id="rect14" />
	<rect
   x="40"
   y="184"
   style="fill:#786D7C"
   width="112"
   height="16"
   data-original="#C9C6CA"
   class=""
   data-old_color="#C9C6CA"
   id="rect16" />
	<rect
   x="360"
   y="312"
   style="fill:#786D7C"
   width="112"
   height="16"
   data-original="#C9C6CA"
   class=""
   data-old_color="#C9C6CA"
   id="rect18" />
</g><g
     id="g26">
	<path
   style="fill:#837A88"
   d="M280,416V96c0-4.418,3.582-8,8-8l0,0c4.418,0,8,3.582,8,8v320c0,4.418-3.582,8-8,8l0,0   C283.582,424,280,420.418,280,416z"
   data-original="#DBD9DC"
   class=""
   data-old_color="#DBD9DC"
   id="path22" />
	<path
   style="fill:#837A88"
   d="M216,416V96c0-4.418,3.582-8,8-8l0,0c4.418,0,8,3.582,8,8v320c0,4.418-3.582,8-8,8l0,0   C219.582,424,216,420.418,216,416z"
   data-original="#DBD9DC"
   class=""
   data-old_color="#DBD9DC"
   id="path24" />
</g><path
     style="fill:#786D7C"
     d="M248,504V8c0-4.422,3.582-8,8-8s8,3.578,8,8v496c0,4.422-3.582,8-8,8S248,508.422,248,504z"
     data-original="#C9C6CA"
     class=""
     data-old_color="#C9C6CA"
     id="path28" /><g
     id="g34">
	<path
   style="fill:#837A88"
   d="M416,232H96c-4.418,0-8-3.582-8-8l0,0c0-4.418,3.582-8,8-8h320c4.418,0,8,3.582,8,8l0,0   C424,228.418,420.418,232,416,232z"
   data-original="#DBD9DC"
   class=""
   data-old_color="#DBD9DC"
   id="path30" />
	<path
   style="fill:#837A88"
   d="M416,296H96c-4.418,0-8-3.582-8-8l0,0c0-4.418,3.582-8,8-8h320c4.418,0,8,3.582,8,8l0,0   C424,292.418,420.418,296,416,296z"
   data-original="#DBD9DC"
   class=""
   data-old_color="#DBD9DC"
   id="path32" />
</g><path
     style="fill:#786D7C"
     d="M504,264H8c-4.422,0-8-3.582-8-8s3.578-8,8-8h496c4.422,0,8,3.582,8,8S508.422,264,504,264z"
     data-original="#C9C6CA"
     class=""
     data-old_color="#C9C6CA"
     id="path36" /><path
     style="fill:#B34E12"
     d="M344,376H168c-17.673,0-32-14.327-32-32V168c0-17.673,14.327-32,32-32h176c17.673,0,32,14.327,32,32  v176C376,361.673,361.673,376,344,376z"
     data-original="#4BD7C8"
     class=""
     data-old_color="#4BD7C8"
     id="path38" /><path
     style="fill:#DB8909"
     d="M344,360H168c-8.837,0-16-7.163-16-16V168c0-8.837,7.163-16,16-16h176c8.837,0,16,7.163,16,16v176  C360,352.837,352.837,360,344,360z"
     data-original="#99E9DF"
     class=""
     data-old_color="#99E9DF"
     id="path40" /><path
     style="fill:#1f5427;stroke-width:0.67137218"
     d="m 316.47262,201.26001 c 0,-10.43816 -8.14474,-19.19306 -19.27054,-22.17492 0.30158,-1.2305 0.50865,-2.48306 0.50865,-3.77129 0,-10.01393 -9.50602,-18.16234 -21.19398,-18.16234 -6.18309,0 -11.75884,2.28067 -15.63491,5.91379 -3.87607,-3.63377 -9.45182,-5.91379 -15.63491,-5.91379 -11.68796,0 -21.19398,8.14905 -21.19398,18.16234 0,1.24931 0.14662,2.47787 0.42874,3.67399 -11.11259,2.9877 -19.19063,11.84314 -19.19063,22.27222 0,5.08481 1.9568,9.85567 5.4743,13.83906 -3.42925,4.2208 -5.4743,9.27706 -5.4743,14.70177 0,8.31251 4.73495,16.06783 12.52738,20.91913 0.10493,11.36833 10.95695,20.5948 24.30151,20.5948 7.59162,0 14.29795,-3.04609 18.76189,-7.71316 4.46394,4.66642 11.17027,7.71316 18.76189,7.71316 12.80186,0 23.21401,-8.51425 24.14168,-19.24301 7.80148,-4.24869 12.68721,-11.66346 12.68721,-19.6763 0,-5.79963 -2.60026,-11.33849 -7.08435,-15.56773 4.48409,-4.22923 7.08435,-9.76809 7.08435,-15.56772 z m -18.93005,20.15631 c 4.89129,2.40976 7.81189,6.51444 7.81189,10.97914 0,3.19462 -1.54889,6.23811 -4.15471,8.583 -2.81498,-4.61583 -7.6076,-8.28527 -13.63503,-10.05285 -2.9477,-0.8692 -6.0587,0.66162 -6.97039,3.39506 -0.91725,2.73408 0.71087,5.64784 3.63703,6.50666 5.15187,1.51007 8.61518,5.41951 8.61518,9.72982 0,5.72374 -5.9225,10.37849 -13.20281,10.37849 -7.28031,0 -13.20281,-4.65475 -13.20281,-10.37849 v -31.13544 c 0,-5.72374 5.9225,-10.37849 13.20281,-10.37849 3.07278,0 5.55908,-2.32348 5.55908,-5.18924 0,-2.86576 -2.4863,-5.18924 -5.55908,-5.18924 -4.87184,0 -9.39345,1.2571 -13.20281,3.37106 v -5.6407 c 0,-2.86576 -2.4863,-5.18924 -5.55908,-5.18924 -3.07278,0 -5.55908,2.32348 -5.55908,5.18924 v 26.41518 c -1.63784,-0.90682 -3.37714,-1.70402 -5.28251,-2.26251 -2.9477,-0.86401 -6.0587,0.66358 -6.97039,3.39506 -0.91725,2.73408 0.71087,5.64784 3.63703,6.50666 5.15187,1.51007 8.61518,5.41952 8.61518,9.72983 v 10.37848 c 0,5.72374 -5.9225,10.37849 -13.20281,10.37849 -7.28031,0 -13.20281,-4.65475 -13.20281,-10.37849 0,-2.44283 1.1132,-4.81951 3.13254,-6.69152 2.17707,-2.01927 2.1875,-5.306 0.0215,-7.34019 -2.16596,-2.03223 -5.68416,-2.04456 -7.86123,-0.0227 -1.15351,1.07158 -2.12426,2.24954 -2.98036,3.48069 -3.03317,-2.80479 -4.81972,-6.40872 -4.81972,-10.18324 0,-7.03661 5.93362,-13.22154 14.42997,-15.04296 2.99148,-0.64088 4.8642,-3.42555 4.17487,-6.21801 -0.68932,-2.79506 -3.6808,-4.52762 -6.66116,-3.89712 -3.40633,0.72973 -6.55416,1.92975 -9.3601,3.50274 -1.66772,-2.0517 -2.58358,-4.41929 -2.58358,-6.88548 0,-7.08461 7.18788,-12.86153 16.07477,-12.97051 1.14517,0.0454 2.30215,-0.22832 3.31668,-0.85363 2.3508,-1.44455 3.17076,-4.30772 1.91093,-6.65909 -0.22236,-0.4132 -0.49962,-0.79071 -0.8144,-1.12477 -0.80885,-0.92758 -1.72609,-2.40262 -1.72609,-4.33821 0,-4.29215 4.52231,-7.78386 10.07582,-7.78386 5.55352,0 10.07583,3.49171 10.07583,7.78386 0,2.86576 2.4863,5.18925 5.55908,5.18925 3.07278,0 5.55908,-2.32349 5.55908,-5.18925 0,-4.29215 4.52231,-7.78386 10.07583,-7.78386 5.55352,0 10.07583,3.49171 10.07583,7.78386 0,1.13126 -0.32243,2.08608 -0.74353,2.88522 -2.88099,0.28346 -5.70222,0.81731 -8.3546,1.86099 -2.82818,1.11245 -4.15333,4.15529 -2.96438,6.79791 1.19451,2.64262 4.46255,3.88155 7.28517,2.76457 2.25282,-0.88671 4.67936,-1.33558 7.20943,-1.33558 9.0064,0 16.32979,5.82038 16.32979,12.9731 0,4.46469 -2.9206,8.56938 -7.81189,10.97914 -1.82407,0.89709 -2.96438,2.66532 -2.96438,4.58858 0,1.92327 1.14031,3.6915 2.96438,4.58859 z"
     data-original="#CCF4EF"
     class="active-path"
     data-old_color="#CCF4EF"
     id="path42"
     inkscape:connector-curvature="0" /><g
     id="g48">
	<circle
   style="fill:#B34E12"
   cx="40"
   cy="192"
   r="16"
   data-original="#4BD7C8"
   class=""
   data-old_color="#4BD7C8"
   id="circle44" />
	<circle
   style="fill:#B34E12"
   cx="472"
   cy="320"
   r="16"
   data-original="#4BD7C8"
   class=""
   data-old_color="#4BD7C8"
   id="circle46" />
</g><g
     id="g54">
	<circle
   style="fill:#DB8909"
   cx="24"
   cy="392"
   r="16"
   data-original="#99E9DF"
   class=""
   data-old_color="#99E9DF"
   id="circle50" />
	<circle
   style="fill:#DB8909"
   cx="488"
   cy="120"
   r="16"
   data-original="#99E9DF"
   class=""
   data-old_color="#99E9DF"
   id="circle52" />
</g><g
     id="g60">
	<circle
   style="fill:#B34E12"
   cx="320"
   cy="40"
   r="16"
   data-original="#4BD7C8"
   class=""
   data-old_color="#4BD7C8"
   id="circle56" />
	<circle
   style="fill:#B34E12"
   cx="192"
   cy="472"
   r="16"
   data-original="#4BD7C8"
   class=""
   data-old_color="#4BD7C8"
   id="circle58" />
</g><g
     id="g66">
	<circle
   style="fill:#DB8909"
   cx="120"
   cy="24"
   r="16"
   data-original="#99E9DF"
   class=""
   data-old_color="#99E9DF"
   id="circle62" />
	<circle
   style="fill:#DB8909"
   cx="392"
   cy="488"
   r="16"
   data-original="#99E9DF"
   class=""
   data-old_color="#99E9DF"
   id="circle64" />
</g><text
     xml:space="preserve"
     style="font-style:normal;font-variant:normal;font-weight:normal;font-stretch:normal;font-size:37.33706665px;line-height:1.25;font-family:'Bauhaus 93';-inkscape-font-specification:'Bauhaus 93, Normal';font-variant-ligatures:normal;font-variant-caps:normal;font-variant-numeric:normal;font-feature-settings:normal;text-align:center;letter-spacing:0px;word-spacing:0px;writing-mode:lr-tb;text-anchor:middle;fill:#501616;fill-opacity:1;stroke:none;stroke-width:1.00010002"
     x="258.16971"
     y="304.07254"
     id="text79"><tspan
       sodipodi:role="line"
       id="tspan81"
       x="262.83685"
       y="304.07254">Pifrans </tspan><tspan
       sodipodi:role="line"
       id="tspan83"
       x="258.16971"
       y="350.74387">Technology</tspan></text>
</g> </svg>